<mxfile host="app.diagrams.net" agent="Mozilla/5.0 (Windows NT 10.0; Win64; x64) AppleWebKit/537.36 (KHTML, like Gecko) Chrome/131.0.0.0 Safari/537.36" version="26.0.7">
  <diagram name="Page-1" id="4fc8d65c-f3f6-feb3-4d1c-02f59d9f9886">
    <mxGraphModel dx="2021" dy="615" grid="1" gridSize="10" guides="1" tooltips="1" connect="1" arrows="1" fold="1" page="1" pageScale="1" pageWidth="826" pageHeight="1169" background="none" math="0" shadow="0">
      <root>
        <mxCell id="0" />
        <mxCell id="1" parent="0" />
        <mxCell id="2" value="Mano de obra" style="whiteSpace=wrap;strokeWidth=2" parent="1" vertex="1">
          <mxGeometry x="36.458333333333236" y="110" width="120" height="60" as="geometry" />
        </mxCell>
        <mxCell id="8" value="Ineficiencias en el proceso de ventas y producción." style="whiteSpace=wrap;strokeWidth=3" parent="1" vertex="1">
          <mxGeometry x="680" y="250" width="120" height="60" as="geometry" />
        </mxCell>
        <mxCell id="9" value="" style="edgeStyle=none;strokeWidth=4" parent="1" target="8" edge="1">
          <mxGeometry width="100" height="100" relative="1" as="geometry">
            <mxPoint y="280" as="sourcePoint" />
            <mxPoint x="240" y="230" as="targetPoint" />
          </mxGeometry>
        </mxCell>
        <mxCell id="12" value="" style="edgeStyle=none;exitX=0.5;exitY=1;strokeWidth=3" parent="1" source="2" edge="1">
          <mxGeometry width="100" height="100" relative="1" as="geometry">
            <mxPoint x="96.45833333333323" y="190" as="sourcePoint" />
            <mxPoint x="156.45833333333323" y="280" as="targetPoint" />
          </mxGeometry>
        </mxCell>
        <mxCell id="16" value="" style="edgeStyle=none;endArrow=none;strokeWidth=2" parent="1" edge="1">
          <mxGeometry width="100" height="100" relative="1" as="geometry">
            <mxPoint x="-10" y="190" as="sourcePoint" />
            <mxPoint x="106.45833333333323" y="190" as="targetPoint" />
          </mxGeometry>
        </mxCell>
        <mxCell id="38" value="" style="edgeStyle=none;endArrow=none;" parent="1" edge="1">
          <mxGeometry width="100" height="100" relative="1" as="geometry">
            <mxPoint x="76.45833333333323" y="210" as="sourcePoint" />
            <mxPoint x="96.45833333333323" y="190" as="targetPoint" />
          </mxGeometry>
        </mxCell>
        <mxCell id="39" value="" style="edgeStyle=none;endArrow=none;" parent="1" edge="1">
          <mxGeometry width="100" height="100" relative="1" as="geometry">
            <mxPoint x="21.458333333333236" y="210.42" as="sourcePoint" />
            <mxPoint x="41.45833333333323" y="190.42" as="targetPoint" />
          </mxGeometry>
        </mxCell>
        <mxCell id="114" value="Dependencia del &#xa;operador" style="text;spacingTop=-5;fontSize=8;align=center;verticalAlign=middle;points=[];fontStyle=1" parent="1" vertex="1">
          <mxGeometry x="-60.001666666666765" y="182.50000000000006" width="30" height="19.999999999999886" as="geometry" />
        </mxCell>
        <mxCell id="122" value="Errores manuales en &#xa;ajuste de imágenes." style="text;spacingTop=-5;fontSize=6;align=center;verticalAlign=middle;points=[]" parent="1" vertex="1">
          <mxGeometry x="61.45833333333317" y="211.52999999999997" width="30" height="19.999999999999886" as="geometry" />
        </mxCell>
        <mxCell id="143" value="Métodos" style="whiteSpace=wrap;strokeWidth=2" parent="1" vertex="1">
          <mxGeometry x="260" y="109.99999999999994" width="120" height="60" as="geometry" />
        </mxCell>
        <mxCell id="145" value="" style="edgeStyle=none;exitX=0.5;exitY=1;strokeWidth=3" parent="1" source="143" edge="1">
          <mxGeometry width="100" height="100" relative="1" as="geometry">
            <mxPoint x="320" y="189.99999999999991" as="sourcePoint" />
            <mxPoint x="380" y="279.99999999999994" as="targetPoint" />
          </mxGeometry>
        </mxCell>
        <mxCell id="p7P8TczUqEEkQ1eDxaEb-265" value="Retrasos en la &#xa;atención al cliente." style="text;spacingTop=-5;fontSize=6;align=center;verticalAlign=middle;points=[]" vertex="1" parent="1">
          <mxGeometry x="-13.541666666666828" y="210" width="30" height="19.999999999999886" as="geometry" />
        </mxCell>
        <mxCell id="p7P8TczUqEEkQ1eDxaEb-266" value="" style="edgeStyle=none;endArrow=none;strokeWidth=2" edge="1" parent="1">
          <mxGeometry width="100" height="100" relative="1" as="geometry">
            <mxPoint x="20" y="238" as="sourcePoint" />
            <mxPoint x="134.68833333333322" y="237.5" as="targetPoint" />
          </mxGeometry>
        </mxCell>
        <mxCell id="p7P8TczUqEEkQ1eDxaEb-267" value="" style="edgeStyle=none;endArrow=none;" edge="1" parent="1">
          <mxGeometry width="100" height="100" relative="1" as="geometry">
            <mxPoint x="104.68833333333323" y="257.5" as="sourcePoint" />
            <mxPoint x="124.68833333333323" y="237.5" as="targetPoint" />
          </mxGeometry>
        </mxCell>
        <mxCell id="p7P8TczUqEEkQ1eDxaEb-268" value="" style="edgeStyle=none;endArrow=none;" edge="1" parent="1">
          <mxGeometry width="100" height="100" relative="1" as="geometry">
            <mxPoint x="49.68833333333323" y="257.91999999999996" as="sourcePoint" />
            <mxPoint x="69.68833333333323" y="237.92" as="targetPoint" />
          </mxGeometry>
        </mxCell>
        <mxCell id="p7P8TczUqEEkQ1eDxaEb-269" value="Falta de formación &#xa;especializada" style="text;spacingTop=-5;fontSize=8;align=center;verticalAlign=middle;points=[];fontStyle=1" vertex="1" parent="1">
          <mxGeometry x="-43.541666666666764" y="230.42000000000004" width="30" height="19.999999999999886" as="geometry" />
        </mxCell>
        <mxCell id="p7P8TczUqEEkQ1eDxaEb-270" value="Procesos manuales &#xa;mal ejecutados." style="text;spacingTop=-5;fontSize=6;align=center;verticalAlign=middle;points=[]" vertex="1" parent="1">
          <mxGeometry x="89.68833333333318" y="259.03" width="30" height="19.999999999999886" as="geometry" />
        </mxCell>
        <mxCell id="p7P8TczUqEEkQ1eDxaEb-271" value="Operadores no entrenados &#xa;en impresión 3D." style="text;spacingTop=-5;fontSize=6;align=center;verticalAlign=middle;points=[]" vertex="1" parent="1">
          <mxGeometry x="14.688333333333173" y="257.5" width="30" height="19.999999999999886" as="geometry" />
        </mxCell>
        <mxCell id="p7P8TczUqEEkQ1eDxaEb-273" value="" style="edgeStyle=none;endArrow=none;strokeWidth=2" edge="1" parent="1">
          <mxGeometry width="100" height="100" relative="1" as="geometry">
            <mxPoint x="232.66" y="188.61" as="sourcePoint" />
            <mxPoint x="329.1183333333332" y="188.61" as="targetPoint" />
          </mxGeometry>
        </mxCell>
        <mxCell id="p7P8TczUqEEkQ1eDxaEb-274" value="" style="edgeStyle=none;endArrow=none;" edge="1" parent="1">
          <mxGeometry width="100" height="100" relative="1" as="geometry">
            <mxPoint x="299.1183333333332" y="208.61" as="sourcePoint" />
            <mxPoint x="319.1183333333332" y="188.61" as="targetPoint" />
          </mxGeometry>
        </mxCell>
        <mxCell id="p7P8TczUqEEkQ1eDxaEb-275" value="" style="edgeStyle=none;endArrow=none;" edge="1" parent="1">
          <mxGeometry width="100" height="100" relative="1" as="geometry">
            <mxPoint x="244.11833333333323" y="209.02999999999997" as="sourcePoint" />
            <mxPoint x="264.1183333333332" y="189.02999999999997" as="targetPoint" />
          </mxGeometry>
        </mxCell>
        <mxCell id="p7P8TczUqEEkQ1eDxaEb-276" value="Procesos manuales &#xa;en todas las etapas" style="text;spacingTop=-5;fontSize=8;align=center;verticalAlign=middle;points=[];fontStyle=1" vertex="1" parent="1">
          <mxGeometry x="166.03833333333324" y="181.53000000000006" width="30" height="19.999999999999886" as="geometry" />
        </mxCell>
        <mxCell id="p7P8TczUqEEkQ1eDxaEb-277" value="Transformación de &#xa;imágenes a STL." style="text;spacingTop=-5;fontSize=6;align=center;verticalAlign=middle;points=[]" vertex="1" parent="1">
          <mxGeometry x="284.11833333333317" y="210.14" width="30" height="19.999999999999886" as="geometry" />
        </mxCell>
        <mxCell id="p7P8TczUqEEkQ1eDxaEb-278" value="Verificación de pagos &#xa;no automatizada." style="text;spacingTop=-5;fontSize=6;align=center;verticalAlign=middle;points=[]" vertex="1" parent="1">
          <mxGeometry x="209.11833333333317" y="208.61" width="30" height="19.999999999999886" as="geometry" />
        </mxCell>
        <mxCell id="p7P8TczUqEEkQ1eDxaEb-279" value="" style="edgeStyle=none;endArrow=none;" edge="1" parent="1">
          <mxGeometry width="100" height="100" relative="1" as="geometry">
            <mxPoint x="330" y="250" as="sourcePoint" />
            <mxPoint x="340" y="236.39" as="targetPoint" />
          </mxGeometry>
        </mxCell>
        <mxCell id="p7P8TczUqEEkQ1eDxaEb-280" value="" style="edgeStyle=none;endArrow=none;" edge="1" parent="1">
          <mxGeometry width="100" height="100" relative="1" as="geometry">
            <mxPoint x="272.34833333333324" y="256.53" as="sourcePoint" />
            <mxPoint x="292.34833333333324" y="236.52999999999997" as="targetPoint" />
          </mxGeometry>
        </mxCell>
        <mxCell id="p7P8TczUqEEkQ1eDxaEb-281" value="Flujo de trabajo &#xa;fragmentado" style="text;spacingTop=-5;fontSize=8;align=center;verticalAlign=middle;points=[];fontStyle=1" vertex="1" parent="1">
          <mxGeometry x="206.03833333333324" y="230.42000000000002" width="30" height="19.999999999999886" as="geometry" />
        </mxCell>
        <mxCell id="p7P8TczUqEEkQ1eDxaEb-282" value="" style="edgeStyle=none;endArrow=none;strokeWidth=2" edge="1" parent="1">
          <mxGeometry width="100" height="100" relative="1" as="geometry">
            <mxPoint x="258.54" y="236.21" as="sourcePoint" />
            <mxPoint x="354.9983333333332" y="236.21" as="targetPoint" />
          </mxGeometry>
        </mxCell>
        <mxCell id="p7P8TczUqEEkQ1eDxaEb-283" value="Falta de integración &#xa;entre sistemas." style="text;spacingTop=-5;fontSize=6;align=center;verticalAlign=middle;points=[]" vertex="1" parent="1">
          <mxGeometry x="249.99833333333316" y="256.53" width="30" height="19.999999999999886" as="geometry" />
        </mxCell>
        <mxCell id="p7P8TczUqEEkQ1eDxaEb-284" value="No hay herramientas &#xa;para seguimiento &#xa;del pedido." style="text;spacingTop=-5;fontSize=6;align=center;verticalAlign=middle;points=[]" vertex="1" parent="1">
          <mxGeometry x="309.99833333333316" y="256.53" width="30" height="19.999999999999886" as="geometry" />
        </mxCell>
        <mxCell id="p7P8TczUqEEkQ1eDxaEb-286" value="Máquinas" style="whiteSpace=wrap;strokeWidth=2" vertex="1" parent="1">
          <mxGeometry x="508.53999999999996" y="109.99999999999994" width="120" height="60" as="geometry" />
        </mxCell>
        <mxCell id="p7P8TczUqEEkQ1eDxaEb-287" value="" style="edgeStyle=none;exitX=0.5;exitY=1;strokeWidth=3" edge="1" source="p7P8TczUqEEkQ1eDxaEb-286" parent="1">
          <mxGeometry width="100" height="100" relative="1" as="geometry">
            <mxPoint x="568.54" y="189.99999999999991" as="sourcePoint" />
            <mxPoint x="628.54" y="279.99999999999994" as="targetPoint" />
          </mxGeometry>
        </mxCell>
        <mxCell id="p7P8TczUqEEkQ1eDxaEb-288" value="" style="edgeStyle=none;endArrow=none;strokeWidth=2" edge="1" parent="1">
          <mxGeometry width="100" height="100" relative="1" as="geometry">
            <mxPoint x="481.2" y="188.61" as="sourcePoint" />
            <mxPoint x="577.6583333333332" y="188.61" as="targetPoint" />
          </mxGeometry>
        </mxCell>
        <mxCell id="p7P8TczUqEEkQ1eDxaEb-289" value="" style="edgeStyle=none;endArrow=none;" edge="1" parent="1">
          <mxGeometry width="100" height="100" relative="1" as="geometry">
            <mxPoint x="547.6583333333332" y="208.61" as="sourcePoint" />
            <mxPoint x="567.6583333333332" y="188.61" as="targetPoint" />
          </mxGeometry>
        </mxCell>
        <mxCell id="p7P8TczUqEEkQ1eDxaEb-290" value="" style="edgeStyle=none;endArrow=none;" edge="1" parent="1">
          <mxGeometry width="100" height="100" relative="1" as="geometry">
            <mxPoint x="492.6583333333332" y="209.02999999999997" as="sourcePoint" />
            <mxPoint x="512.6583333333332" y="189.02999999999997" as="targetPoint" />
          </mxGeometry>
        </mxCell>
        <mxCell id="p7P8TczUqEEkQ1eDxaEb-291" value="Limitaciones de las &#xa;impresoras 3D" style="text;spacingTop=-5;fontSize=8;align=center;verticalAlign=middle;points=[];fontStyle=1" vertex="1" parent="1">
          <mxGeometry x="414.57833333333326" y="181.53000000000006" width="30" height="19.999999999999886" as="geometry" />
        </mxCell>
        <mxCell id="p7P8TczUqEEkQ1eDxaEb-292" value="Sin notificaciones &#xa;automáticas &#xa;al finalizar impresión." style="text;spacingTop=-5;fontSize=6;align=center;verticalAlign=middle;points=[]" vertex="1" parent="1">
          <mxGeometry x="532.6583333333332" y="210.14" width="30" height="19.999999999999886" as="geometry" />
        </mxCell>
        <mxCell id="p7P8TczUqEEkQ1eDxaEb-293" value="Proceso de impresión de &#xa;12 horas por lámpara." style="text;spacingTop=-5;fontSize=6;align=center;verticalAlign=middle;points=[]" vertex="1" parent="1">
          <mxGeometry x="457.6583333333332" y="208.61" width="30" height="19.999999999999886" as="geometry" />
        </mxCell>
        <mxCell id="p7P8TczUqEEkQ1eDxaEb-294" value="" style="edgeStyle=none;endArrow=none;" edge="1" parent="1">
          <mxGeometry width="100" height="100" relative="1" as="geometry">
            <mxPoint x="578.54" y="250" as="sourcePoint" />
            <mxPoint x="588.54" y="236.39" as="targetPoint" />
          </mxGeometry>
        </mxCell>
        <mxCell id="p7P8TczUqEEkQ1eDxaEb-296" value="Dependencia de &#xa;transferencia USB" style="text;spacingTop=-5;fontSize=8;align=center;verticalAlign=middle;points=[];fontStyle=1" vertex="1" parent="1">
          <mxGeometry x="454.57833333333326" y="230.42000000000002" width="30" height="19.999999999999886" as="geometry" />
        </mxCell>
        <mxCell id="p7P8TczUqEEkQ1eDxaEb-297" value="" style="edgeStyle=none;endArrow=none;strokeWidth=2" edge="1" parent="1">
          <mxGeometry width="100" height="100" relative="1" as="geometry">
            <mxPoint x="507.08000000000004" y="236.21" as="sourcePoint" />
            <mxPoint x="603.5383333333332" y="236.21" as="targetPoint" />
          </mxGeometry>
        </mxCell>
        <mxCell id="p7P8TczUqEEkQ1eDxaEb-298" value="Retrasos al cargar &#xa;manualmente &#xa;archivos GCODE." style="text;spacingTop=-5;fontSize=6;align=center;verticalAlign=middle;points=[]" vertex="1" parent="1">
          <mxGeometry x="498.5383333333332" y="256.53" width="30" height="19.999999999999886" as="geometry" />
        </mxCell>
        <mxCell id="p7P8TczUqEEkQ1eDxaEb-299" value="Posibles errores &#xa;en la carga de &#xa;datos." style="text;spacingTop=-5;fontSize=6;align=center;verticalAlign=middle;points=[]" vertex="1" parent="1">
          <mxGeometry x="558.5383333333332" y="256.53" width="30" height="19.999999999999886" as="geometry" />
        </mxCell>
        <mxCell id="p7P8TczUqEEkQ1eDxaEb-301" value="" style="edgeStyle=none;endArrow=none;" edge="1" parent="1">
          <mxGeometry width="100" height="100" relative="1" as="geometry">
            <mxPoint x="523.89" y="250" as="sourcePoint" />
            <mxPoint x="533.89" y="236.39" as="targetPoint" />
          </mxGeometry>
        </mxCell>
        <mxCell id="p7P8TczUqEEkQ1eDxaEb-302" value="Materiales" style="whiteSpace=wrap;strokeWidth=2" vertex="1" parent="1">
          <mxGeometry x="36.45833333333326" y="400" width="120" height="60" as="geometry" />
        </mxCell>
        <mxCell id="p7P8TczUqEEkQ1eDxaEb-303" value="" style="edgeStyle=none;strokeWidth=3;exitX=0.5;exitY=0;exitDx=0;exitDy=0;" edge="1" source="p7P8TczUqEEkQ1eDxaEb-302" parent="1">
          <mxGeometry width="100" height="100" relative="1" as="geometry">
            <mxPoint x="120" y="390" as="sourcePoint" />
            <mxPoint x="156.4583333333332" y="280" as="targetPoint" />
          </mxGeometry>
        </mxCell>
        <mxCell id="p7P8TczUqEEkQ1eDxaEb-304" value="" style="edgeStyle=none;endArrow=none;strokeWidth=2" edge="1" parent="1">
          <mxGeometry width="100" height="100" relative="1" as="geometry">
            <mxPoint x="-10" y="381.53" as="sourcePoint" />
            <mxPoint x="106.4583333333332" y="381.53" as="targetPoint" />
          </mxGeometry>
        </mxCell>
        <mxCell id="p7P8TczUqEEkQ1eDxaEb-305" value="" style="edgeStyle=none;endArrow=none;" edge="1" parent="1">
          <mxGeometry width="100" height="100" relative="1" as="geometry">
            <mxPoint x="76.4583333333332" y="361.53" as="sourcePoint" />
            <mxPoint x="96.4583333333332" y="381.53" as="targetPoint" />
          </mxGeometry>
        </mxCell>
        <mxCell id="p7P8TczUqEEkQ1eDxaEb-306" value="" style="edgeStyle=none;endArrow=none;" edge="1" parent="1">
          <mxGeometry width="100" height="100" relative="1" as="geometry">
            <mxPoint x="21.458333333333258" y="361.11" as="sourcePoint" />
            <mxPoint x="41.4583333333332" y="381.11" as="targetPoint" />
          </mxGeometry>
        </mxCell>
        <mxCell id="p7P8TczUqEEkQ1eDxaEb-307" value="Imágenes de &#xa;baja calidad" style="text;spacingTop=-5;fontSize=8;align=center;verticalAlign=middle;points=[];fontStyle=1" vertex="1" parent="1">
          <mxGeometry x="-60.00166666666678" y="369.03000000000003" width="30" height="19.999999999999886" as="geometry" />
        </mxCell>
        <mxCell id="p7P8TczUqEEkQ1eDxaEb-308" value="Necesidad de ajuste &#xa;manual de las &#xa;imágenes." style="text;spacingTop=-5;fontSize=6;align=center;verticalAlign=middle;points=[]" vertex="1" parent="1">
          <mxGeometry x="53.2283333333332" y="340.0000000000001" width="30" height="19.999999999999886" as="geometry" />
        </mxCell>
        <mxCell id="p7P8TczUqEEkQ1eDxaEb-309" value="Fotos enviadas por &#xa;clientes a través &#xa;de Instagram." style="text;spacingTop=-5;fontSize=6;align=center;verticalAlign=middle;points=[]" vertex="1" parent="1">
          <mxGeometry x="-13.5416666666668" y="349.0300000000001" width="30" height="19.999999999999886" as="geometry" />
        </mxCell>
        <mxCell id="p7P8TczUqEEkQ1eDxaEb-310" value="" style="edgeStyle=none;endArrow=none;strokeWidth=2" edge="1" parent="1">
          <mxGeometry width="100" height="100" relative="1" as="geometry">
            <mxPoint x="13.54" y="332.42" as="sourcePoint" />
            <mxPoint x="128.2283333333332" y="332.92" as="targetPoint" />
          </mxGeometry>
        </mxCell>
        <mxCell id="p7P8TczUqEEkQ1eDxaEb-311" value="" style="edgeStyle=none;endArrow=none;" edge="1" parent="1">
          <mxGeometry width="100" height="100" relative="1" as="geometry">
            <mxPoint x="98.22833333333323" y="312.92" as="sourcePoint" />
            <mxPoint x="118.22833333333323" y="332.92" as="targetPoint" />
          </mxGeometry>
        </mxCell>
        <mxCell id="p7P8TczUqEEkQ1eDxaEb-312" value="" style="edgeStyle=none;endArrow=none;" edge="1" parent="1">
          <mxGeometry width="100" height="100" relative="1" as="geometry">
            <mxPoint x="43.22833333333322" y="312.50000000000006" as="sourcePoint" />
            <mxPoint x="63.22833333333322" y="332.50000000000006" as="targetPoint" />
          </mxGeometry>
        </mxCell>
        <mxCell id="p7P8TczUqEEkQ1eDxaEb-313" value="Falta de estándares &#xa;en imágenes" style="text;spacingTop=-5;fontSize=8;align=center;verticalAlign=middle;points=[];fontStyle=1" vertex="1" parent="1">
          <mxGeometry x="-43.54166666666674" y="320.00000000000006" width="30" height="19.999999999999886" as="geometry" />
        </mxCell>
        <mxCell id="p7P8TczUqEEkQ1eDxaEb-314" value="Resolución o formato &#xa;no adecuados." style="text;spacingTop=-5;fontSize=6;align=center;verticalAlign=middle;points=[]" vertex="1" parent="1">
          <mxGeometry x="83.22833333333317" y="291.39000000000016" width="30" height="19.999999999999886" as="geometry" />
        </mxCell>
        <mxCell id="p7P8TczUqEEkQ1eDxaEb-315" value="No hay especificaciones &#xa;claras para el cliente." style="text;spacingTop=-5;fontSize=6;align=center;verticalAlign=middle;points=[]" vertex="1" parent="1">
          <mxGeometry x="8.228333333333161" y="292.92000000000013" width="30" height="19.999999999999886" as="geometry" />
        </mxCell>
        <mxCell id="p7P8TczUqEEkQ1eDxaEb-317" value="Medio ambiente" style="whiteSpace=wrap;strokeWidth=2" vertex="1" parent="1">
          <mxGeometry x="259.9983333333332" y="400" width="120" height="60" as="geometry" />
        </mxCell>
        <mxCell id="p7P8TczUqEEkQ1eDxaEb-318" value="" style="edgeStyle=none;strokeWidth=3;exitX=0.5;exitY=0;exitDx=0;exitDy=0;" edge="1" source="p7P8TczUqEEkQ1eDxaEb-317" parent="1">
          <mxGeometry width="100" height="100" relative="1" as="geometry">
            <mxPoint x="343.53999999999996" y="390" as="sourcePoint" />
            <mxPoint x="379.9983333333332" y="280" as="targetPoint" />
          </mxGeometry>
        </mxCell>
        <mxCell id="p7P8TczUqEEkQ1eDxaEb-319" value="" style="edgeStyle=none;endArrow=none;strokeWidth=2" edge="1" parent="1">
          <mxGeometry width="100" height="100" relative="1" as="geometry">
            <mxPoint x="213.54" y="381.53" as="sourcePoint" />
            <mxPoint x="329.9983333333332" y="381.53" as="targetPoint" />
          </mxGeometry>
        </mxCell>
        <mxCell id="p7P8TczUqEEkQ1eDxaEb-320" value="" style="edgeStyle=none;endArrow=none;" edge="1" parent="1">
          <mxGeometry width="100" height="100" relative="1" as="geometry">
            <mxPoint x="299.9983333333332" y="361.53" as="sourcePoint" />
            <mxPoint x="319.9983333333332" y="381.53" as="targetPoint" />
          </mxGeometry>
        </mxCell>
        <mxCell id="p7P8TczUqEEkQ1eDxaEb-321" value="" style="edgeStyle=none;endArrow=none;" edge="1" parent="1">
          <mxGeometry width="100" height="100" relative="1" as="geometry">
            <mxPoint x="244.99833333333325" y="361.11" as="sourcePoint" />
            <mxPoint x="264.9983333333332" y="381.11" as="targetPoint" />
          </mxGeometry>
        </mxCell>
        <mxCell id="p7P8TczUqEEkQ1eDxaEb-322" value="Uso de &#xa;Instagram como &#xa;canal principal" style="text;spacingTop=-5;fontSize=8;align=center;verticalAlign=middle;points=[];fontStyle=1" vertex="1" parent="1">
          <mxGeometry x="166.4583333333332" y="372.03000000000003" width="30" height="19.999999999999886" as="geometry" />
        </mxCell>
        <mxCell id="p7P8TczUqEEkQ1eDxaEb-323" value="Demoras fuera &#xa;de horario laboral." style="text;spacingTop=-5;fontSize=6;align=center;verticalAlign=middle;points=[]" vertex="1" parent="1">
          <mxGeometry x="276.7683333333332" y="340.0000000000001" width="30" height="19.999999999999886" as="geometry" />
        </mxCell>
        <mxCell id="p7P8TczUqEEkQ1eDxaEb-324" value="Comunicación informal &#xa;y poco estructurada." style="text;spacingTop=-5;fontSize=6;align=center;verticalAlign=middle;points=[]" vertex="1" parent="1">
          <mxGeometry x="209.9983333333332" y="342.0300000000001" width="30" height="19.999999999999886" as="geometry" />
        </mxCell>
        <mxCell id="p7P8TczUqEEkQ1eDxaEb-325" value="" style="edgeStyle=none;endArrow=none;strokeWidth=2" edge="1" parent="1">
          <mxGeometry width="100" height="100" relative="1" as="geometry">
            <mxPoint x="237.07999999999998" y="332.42" as="sourcePoint" />
            <mxPoint x="351.7683333333332" y="332.92" as="targetPoint" />
          </mxGeometry>
        </mxCell>
        <mxCell id="p7P8TczUqEEkQ1eDxaEb-326" value="" style="edgeStyle=none;endArrow=none;" edge="1" parent="1">
          <mxGeometry width="100" height="100" relative="1" as="geometry">
            <mxPoint x="321.7683333333332" y="312.92" as="sourcePoint" />
            <mxPoint x="341.7683333333332" y="332.92" as="targetPoint" />
          </mxGeometry>
        </mxCell>
        <mxCell id="p7P8TczUqEEkQ1eDxaEb-327" value="" style="edgeStyle=none;endArrow=none;" edge="1" parent="1">
          <mxGeometry width="100" height="100" relative="1" as="geometry">
            <mxPoint x="266.7683333333332" y="312.50000000000006" as="sourcePoint" />
            <mxPoint x="286.7683333333332" y="332.50000000000006" as="targetPoint" />
          </mxGeometry>
        </mxCell>
        <mxCell id="p7P8TczUqEEkQ1eDxaEb-328" value="Falta de herramientas &#xa;de gestión integrada" style="text;spacingTop=-5;fontSize=8;align=center;verticalAlign=middle;points=[];fontStyle=1" vertex="1" parent="1">
          <mxGeometry x="179.99833333333325" y="320.00000000000006" width="30" height="19.999999999999886" as="geometry" />
        </mxCell>
        <mxCell id="p7P8TczUqEEkQ1eDxaEb-329" value="Seguimiento manual &#xa;de ventas y clientes." style="text;spacingTop=-5;fontSize=6;align=center;verticalAlign=middle;points=[]" vertex="1" parent="1">
          <mxGeometry x="306.76833333333315" y="291.39000000000016" width="30" height="19.999999999999886" as="geometry" />
        </mxCell>
        <mxCell id="p7P8TczUqEEkQ1eDxaEb-330" value="No hay CRM para &#xa;manejar pedidos." style="text;spacingTop=-5;fontSize=6;align=center;verticalAlign=middle;points=[]" vertex="1" parent="1">
          <mxGeometry x="231.76833333333315" y="292.92000000000013" width="30" height="19.999999999999886" as="geometry" />
        </mxCell>
        <mxCell id="p7P8TczUqEEkQ1eDxaEb-331" value="Cliente" style="whiteSpace=wrap;strokeWidth=2" vertex="1" parent="1">
          <mxGeometry x="508.5383333333332" y="400" width="120" height="60" as="geometry" />
        </mxCell>
        <mxCell id="p7P8TczUqEEkQ1eDxaEb-332" value="" style="edgeStyle=none;strokeWidth=3;exitX=0.5;exitY=0;exitDx=0;exitDy=0;" edge="1" source="p7P8TczUqEEkQ1eDxaEb-331" parent="1">
          <mxGeometry width="100" height="100" relative="1" as="geometry">
            <mxPoint x="592.0799999999999" y="390" as="sourcePoint" />
            <mxPoint x="628.5383333333332" y="280" as="targetPoint" />
          </mxGeometry>
        </mxCell>
        <mxCell id="p7P8TczUqEEkQ1eDxaEb-333" value="" style="edgeStyle=none;endArrow=none;strokeWidth=2" edge="1" parent="1">
          <mxGeometry width="100" height="100" relative="1" as="geometry">
            <mxPoint x="462.08" y="381.53" as="sourcePoint" />
            <mxPoint x="578.5383333333332" y="381.53" as="targetPoint" />
          </mxGeometry>
        </mxCell>
        <mxCell id="p7P8TczUqEEkQ1eDxaEb-334" value="" style="edgeStyle=none;endArrow=none;" edge="1" parent="1">
          <mxGeometry width="100" height="100" relative="1" as="geometry">
            <mxPoint x="548.5383333333332" y="361.53" as="sourcePoint" />
            <mxPoint x="568.5383333333332" y="381.53" as="targetPoint" />
          </mxGeometry>
        </mxCell>
        <mxCell id="p7P8TczUqEEkQ1eDxaEb-335" value="" style="edgeStyle=none;endArrow=none;" edge="1" parent="1">
          <mxGeometry width="100" height="100" relative="1" as="geometry">
            <mxPoint x="493.53833333333324" y="361.11" as="sourcePoint" />
            <mxPoint x="513.5383333333332" y="381.11" as="targetPoint" />
          </mxGeometry>
        </mxCell>
        <mxCell id="p7P8TczUqEEkQ1eDxaEb-336" value="Inseguridad en &#xa;transferencias &#xa;bancarias" style="text;spacingTop=-5;fontSize=8;align=center;verticalAlign=middle;points=[];fontStyle=1" vertex="1" parent="1">
          <mxGeometry x="412.9983333333332" y="372.03000000000003" width="30" height="19.999999999999886" as="geometry" />
        </mxCell>
        <mxCell id="p7P8TczUqEEkQ1eDxaEb-337" value="Proceso de verificación &#xa;manual aumenta &#xa;desconfianza." style="text;spacingTop=-5;fontSize=6;align=center;verticalAlign=middle;points=[]" vertex="1" parent="1">
          <mxGeometry x="525.3083333333332" y="340.0000000000001" width="30" height="19.999999999999886" as="geometry" />
        </mxCell>
        <mxCell id="p7P8TczUqEEkQ1eDxaEb-338" value="Riesgo de estafas &#xa;al compartir &#xa;datos sensibles." style="text;spacingTop=-5;fontSize=6;align=center;verticalAlign=middle;points=[]" vertex="1" parent="1">
          <mxGeometry x="456.5383333333332" y="344.0300000000001" width="30" height="19.999999999999886" as="geometry" />
        </mxCell>
        <mxCell id="p7P8TczUqEEkQ1eDxaEb-339" value="" style="edgeStyle=none;endArrow=none;strokeWidth=2" edge="1" parent="1">
          <mxGeometry width="100" height="100" relative="1" as="geometry">
            <mxPoint x="485.62" y="332.42" as="sourcePoint" />
            <mxPoint x="600.3083333333332" y="332.92" as="targetPoint" />
          </mxGeometry>
        </mxCell>
        <mxCell id="p7P8TczUqEEkQ1eDxaEb-340" value="" style="edgeStyle=none;endArrow=none;" edge="1" parent="1">
          <mxGeometry width="100" height="100" relative="1" as="geometry">
            <mxPoint x="570.3083333333332" y="312.92" as="sourcePoint" />
            <mxPoint x="590.3083333333332" y="332.92" as="targetPoint" />
          </mxGeometry>
        </mxCell>
        <mxCell id="p7P8TczUqEEkQ1eDxaEb-341" value="" style="edgeStyle=none;endArrow=none;" edge="1" parent="1">
          <mxGeometry width="100" height="100" relative="1" as="geometry">
            <mxPoint x="515.3083333333332" y="312.50000000000006" as="sourcePoint" />
            <mxPoint x="535.3083333333332" y="332.50000000000006" as="targetPoint" />
          </mxGeometry>
        </mxCell>
        <mxCell id="p7P8TczUqEEkQ1eDxaEb-342" value="Pérdida de &#xa;interés por demoras" style="text;spacingTop=-5;fontSize=8;align=center;verticalAlign=middle;points=[];fontStyle=1" vertex="1" parent="1">
          <mxGeometry x="426.53833333333324" y="312.9200000000001" width="30" height="19.999999999999886" as="geometry" />
        </mxCell>
        <mxCell id="p7P8TczUqEEkQ1eDxaEb-343" value="Falta de notificaciones &#xa;sobre el estado del pedido." style="text;spacingTop=-5;fontSize=6;align=center;verticalAlign=middle;points=[]" vertex="1" parent="1">
          <mxGeometry x="555.3083333333332" y="291.39000000000016" width="30" height="19.999999999999886" as="geometry" />
        </mxCell>
        <mxCell id="p7P8TczUqEEkQ1eDxaEb-344" value="Retrasos en &#xa;respuestas iniciales." style="text;spacingTop=-5;fontSize=6;align=center;verticalAlign=middle;points=[]" vertex="1" parent="1">
          <mxGeometry x="480.30833333333317" y="292.92000000000013" width="30" height="19.999999999999886" as="geometry" />
        </mxCell>
      </root>
    </mxGraphModel>
  </diagram>
</mxfile>
